HIERARCHY
ROOT root
{
	OFFSET	0	13.1	24.9
	CHANNELS 6  Xposition Yposition Zposition Xrotation Yrotation Zrotation
	JOINT spine_1
	{
		OFFSET	0	9.99999	0
		CHANNELS 3  Xrotation Yrotation Zrotation
		JOINT spine_2
		{
			OFFSET	0	112	-10
			CHANNELS 3  Xrotation Yrotation Zrotation
			JOINT spine_3
			{
				OFFSET	0	206.5	19.3
				CHANNELS 3  Xrotation Yrotation Zrotation
				JOINT spine_4
				{
					OFFSET	0	110.4	14.6
					CHANNELS 3  Xrotation Yrotation Zrotation
					JOINT neck_1
					{
						OFFSET	0	71.8	-50.3
						CHANNELS 3  Xrotation Yrotation Zrotation
						JOINT neck_2
						{
							OFFSET	0	86.2	-25.8
							CHANNELS 3  Xrotation Yrotation Zrotation
							JOINT head_ee
							{
								OFFSET	0	179.8	-8.7
								CHANNELS 3  Xrotation Yrotation Zrotation
								End Site
								{
									OFFSET	1	0	0
								}
							}
						}
					}
					JOINT left_clavicle
					{
						OFFSET	-43.2	22.4	-70.8
						CHANNELS 3  Xrotation Yrotation Zrotation
						JOINT left_shoulder
						{
							OFFSET	-93.9	-5.79999	48.7
							CHANNELS 3  Xrotation Yrotation Zrotation
							JOINT left_elbow
							{
								OFFSET	-291.4	-30.8	15.2
								CHANNELS 3  Xrotation Yrotation Zrotation
								JOINT left_lowarm_twist
								{
									OFFSET	-110.7	-3.89999	13.6
									CHANNELS 3  Xrotation Yrotation Zrotation
									JOINT left_hand
									{
										OFFSET	-110.7	-3.89999	13.6
										CHANNELS 3  Xrotation Yrotation Zrotation
										JOINT left_ee
										{
											OFFSET	-80.8	-5.10001	12.1
											CHANNELS 3  Xrotation Yrotation Zrotation
											End Site
											{
												OFFSET	1	0	0
											}
										}
									}
								}
							}
						}
					}
					JOINT right_clavicle
					{
						OFFSET	43.2	22.4	-70.8
						CHANNELS 3  Xrotation Yrotation Zrotation
						JOINT right_shoulder
						{
							OFFSET	93.9	-5.79999	48.7
							CHANNELS 3  Xrotation Yrotation Zrotation
							JOINT right_elbow
							{
								OFFSET	291.4	-30.8	15.2
								CHANNELS 3  Xrotation Yrotation Zrotation
								JOINT right_lowarm_twist
								{
									OFFSET	110.7	-3.89999	13.6
									CHANNELS 3  Xrotation Yrotation Zrotation
									JOINT right_hand
									{
										OFFSET	110.7	-3.89999	13.6
										CHANNELS 3  Xrotation Yrotation Zrotation
										JOINT right_ee
										{
											OFFSET	80.8	-5.10001	12.1
											CHANNELS 3  Xrotation Yrotation Zrotation
											End Site
											{
												OFFSET	1	0	0
											}
										}
									}
								}
							}
						}
					}
				}
			}
		}
	}
	JOINT left_hip
	{
		OFFSET	-82.8	-127.5	0.300001
		CHANNELS 3  Xrotation Yrotation Zrotation
		JOINT left_knee
		{
			OFFSET	-28.2	-396.7	2.2
			CHANNELS 3  Xrotation Yrotation Zrotation
			JOINT left_ankle
			{
				OFFSET	-11.7	-411.3	35.4
				CHANNELS 3  Xrotation Yrotation Zrotation
				JOINT left_toes
				{
					OFFSET	0	-60	-88.6
					CHANNELS 3  Xrotation Yrotation Zrotation
					JOINT left_foot_ee
					{
						OFFSET	-22.5	-16.5	-42.2
						CHANNELS 3  Xrotation Yrotation Zrotation
						End Site
						{
							OFFSET	1	0	0
						}
					}
				}
			}
		}
	}
	JOINT right_hip
	{
		OFFSET	82.8	-127.5	0.300001
		CHANNELS 3  Xrotation Yrotation Zrotation
		JOINT right_knee
		{
			OFFSET	28.2	-396.7	2.2
			CHANNELS 3  Xrotation Yrotation Zrotation
			JOINT right_ankle
			{
				OFFSET	11.7	-411.3	35.4
				CHANNELS 3  Xrotation Yrotation Zrotation
				JOINT right_toes
				{
					OFFSET	0	-60	-88.6
					CHANNELS 3  Xrotation Yrotation Zrotation
					JOINT right_foot_ee
					{
						OFFSET	22.5	-16.5	-42.2
						CHANNELS 3  Xrotation Yrotation Zrotation
						End Site
						{
							OFFSET	1	0	0
						}
					}
				}
			}
		}
	}
}
MOTION
Frames: 6
Frame Time: 0.02
3869.22 637.775 -399.265 -19.7021 39.3679 12.4681 6.72307 0.217128 0.973725 6.72359 0.15473 0.985566 6.72554 0.0611831 0.99576 6.72422 0.217669 0.973604 -20.096 11.4178 3.05725 -20.6969 20.4694 7.76726 -0.0 0.0 -0.0 2.86616 -0.24516 5.50605 19.0722 20.7877 71.498 1.91054 -43.4189 0.760723 75.4434 -3.3239 -8.33233 2.80196 30.2365 27.8139 -0.0 0.0 -0.0 10.7529 7.07097 -21.4802 14.0277 -67.0801 -33.6751 0.610274 16.8208 -0.0902314 11.1903 -0.257885 1.40393 -0.211531 11.1434 6.17356 0.0 0.0 0.0 -0.640433 47.6018 10.2243 -15.965 0.321863 2.42094 41.8816 19.2585 -5.18105 37.4225 -0.0 -0.0 -0.0 0.0 -0.0 53.8023 26.3935 -13.5467 -6.08572 -0.202301 -0.911632 -17.3754 10.5058 -2.7632 12.5013 -0.0 -0.0 0.0 0.0 0.0 
3858.44 637.217 -404.532 -19.4917 39.2135 12.0452 6.73835 0.0961939 1.25033 6.73921 0.0164437 1.25392 6.73843 -0.101523 1.24991 6.73626 0.0971351 1.25026 -19.8888 11.8801 0.676918 -20.6544 22.5468 5.77085 -0.0 0.0 -0.0 2.93284 -1.07279 5.57781 14.1776 9.05574 66.5683 2.06903 -45.7 0.871942 75.4485 -3.32446 -8.33267 3.28425 30.5103 30.8893 -0.0 0.0 -0.0 10.1166 5.71315 -20.0827 7.70825 -65.4516 -39.6018 0.650574 17.8629 -0.102244 11.1087 -0.257004 1.39355 0.206233 3.32666 0.0205789 0.0 0.0 0.0 -2.86164 46.9913 12.0598 -14.6571 0.32101 2.22028 41.585 17.3862 -5.11475 33.8808 -0.0 -0.0 -0.0 0.0 -0.0 55.7888 26.2131 -14.0817 -10.4272 -0.286912 -1.57231 -18.0218 11.9667 -2.89367 14.0396 -0.0 -0.0 0.0 0.0 0.0 
3839.94 635.244 -408.713 -20.4588 39.3414 12.6345 6.75811 -0.024932 1.00825 6.75867 -0.089036 1.00462 6.75639 -0.182797 0.99186 6.75502 -0.0238652 1.00828 -18.1465 12.2014 2.10159 -18.7756 22.344 6.83031 -0.0 0.0 -0.0 4.36012 -1.91264 8.32688 9.35277 11.6349 64.6779 2.50812 -51.1626 1.20083 73.131 -3.07157 -8.17615 3.49501 30.7136 32.2757 -0.0 0.0 -0.0 10.4496 5.24248 -20.7903 15.361 -64.4104 -32.2106 0.636608 17.5031 -0.0980021 13.6641 -0.277591 1.71927 -1.16588 -2.19817 6.82776 0.0 0.0 0.0 -3.91825 47.6586 12.6655 -14.2312 0.319744 2.15495 40.1775 13.2702 -4.92464 35.5072 -0.0 -0.0 -0.0 0.0 -0.0 55.009 27.0745 -13.1669 -9.53392 -0.273599 -1.43589 -20.2371 17.7971 -3.39982 15.4609 -0.0 -0.0 0.0 0.0 0.0 
3823.85 634.09 -420.271 -21.5004 38.3495 13.0959 6.97548 0.0218658 0.803863 6.97584 -0.0293287 0.803625 6.97494 -0.101462 0.797734 6.97405 0.0257945 0.803746 -16.7359 14.5492 0.244312 -17.6399 27.7864 5.79621 -0.0 0.0 -0.0 5.38798 -1.12497 10.3865 4.56036 7.64015 61.1109 2.74922 -53.7012 1.39198 71.8474 -2.93428 -8.08511 3.80433 30.6154 34.3164 -0.0 0.0 -0.0 10.9702 2.41533 -21.8098 21.6587 -64.7402 -26.3781 0.808987 21.8382 -0.156069 13.2962 -0.275523 1.67233 -2.4231 -10.1468 11.3842 0.0 0.0 0.0 -6.41953 48.0458 14.7715 -11.2878 0.297726 1.70393 35.0951 12.1313 -4.43657 34.2165 -0.0 -0.0 -0.0 0.0 -0.0 55.6773 26.9882 -13.3473 -11.4111 -0.299113 -1.72279 -15.8088 21.7438 -2.75151 15.5607 -0.0 -0.0 0.0 0.0 0.0 
3802.44 633.114 -428.721 -21.6143 37.6377 12.3247 6.83385 0.125364 0.987444 6.83439 0.0622798 0.993419 6.83473 -0.0297135 0.994926 6.83337 0.127782 0.987134 -17.1918 12.9299 2.0755 -17.8429 23.6925 6.89961 -0.0 0.0 -0.0 5.13076 1.55198 9.95988 2.47044 6.54361 61.3414 2.90376 -55.1823 1.51771 74.5098 -3.22126 -8.2705 4.00356 31.021 35.6994 -0.0 0.0 -0.0 10.0581 0.0651104 -19.7782 24.3833 -62.1611 -25.6237 0.634322 17.4441 -0.0973157 18.2387 -0.278119 2.30341 -1.70378 -13.8742 4.95769 0.0 0.0 0.0 -8.01134 47.4036 16.5395 -12.673 0.310974 1.91604 35.4082 12.6373 -4.47206 27.0909 -0.0 -0.0 -0.0 0.0 -0.0 55.0345 26.1994 -13.1569 -14.7129 -0.32114 -2.22884 -10.8192 19.7397 -1.83646 11.2071 -0.0 -0.0 0.0 0.0 0.0 
3790.1 632.81 -434.57 -22.07 37.3751 12.6949 6.58116 0.0698438 0.930401 6.58164 0.010501 0.93296 6.5812 -0.0798095 0.929599 6.58 0.0679985 0.930538 -15.1709 13.6185 1.7916 -15.7564 25.0129 6.42995 -0.0 0.0 -0.0 5.75747 1.90266 11.1744 0.681517 7.17133 59.9159 3.17039 -57.5012 1.73969 67.5718 -2.49238 -7.76022 3.88394 29.7321 34.7807 -0.0 0.0 -0.0 11.2725 0.239123 -22.3281 24.3536 -63.3064 -24.3051 0.862316 23.1303 -0.176465 16.4637 -0.283452 2.07677 -2.39993 -12.6476 9.96688 0.0 0.0 0.0 -7.68205 45.6497 16.3599 -10.9966 0.294288 1.65937 31.9891 11.4293 -4.11586 33.0342 -0.0 -0.0 -0.0 0.0 -0.0 57.6481 28.6064 -15.1305 -17.3862 -0.317596 -2.63895 -13.721 18.4901 -2.3103 17.9496 -0.0 -0.0 0.0 0.0 0.0 
